<?xml version="1.0" encoding="utf-8"?>
<!-- Generator: Adobe Illustrator 21.1.0, SVG Export Plug-In . SVG Version: 6.00 Build 0)  -->
<svg version="1.1" id="Layer_1" xmlns="http://www.w3.org/2000/svg" xmlns:xlink="http://www.w3.org/1999/xlink" x="0px" y="0px"
	 viewBox="0 0 792 612" style="enable-background:new 0 0 792 612;" xml:space="preserve">
<style type="text/css">
	.st0{fill:#3DABE1;}
	.st1{fill:#FFFFFF;}
	.st2{fill:none;stroke:#3DABE1;stroke-width:7;stroke-miterlimit:10;}
	.st3{fill:none;stroke:#FFFFFF;stroke-width:3;stroke-miterlimit:10;}
	.st4{fill:none;stroke:#000000;stroke-width:7;stroke-miterlimit:10;}
	.st5{fill:none;stroke:#3DABE1;stroke-width:3;stroke-miterlimit:10;}
	.st6{fill:none;stroke:#000000;stroke-width:5;stroke-miterlimit:10;}
	.st7{fill:none;stroke:#3DABE1;stroke-width:2;stroke-miterlimit:10;}
	.st8{fill:none;stroke:#3DABE1;stroke-width:5;stroke-miterlimit:10;}
	.st9{fill:none;stroke:#FFFFFF;stroke-width:2;stroke-miterlimit:10;}
</style>

<rect x="-2060.1" y="218.3" width="106.5" height="54.3"/>
<rect x="-3029.8" y="375.4" style="fill:none;" width="328" height="71.3"/>
<text transform="matrix(1 0 0 1 -3029.8062 405.4688)"><tspan x="0" y="0" style="font-family:'TenbySix'; font-size:43px;">C H E C K</tspan><tspan x="157.8" y="0" class="st0" style="font-family:'TenbySix'; font-size:43px;"> </tspan><tspan x="166.4" y="0" class="st0" style="font-family:'TenbySixLight'; font-size:43px;">L I G H T</tspan></text>
<ellipse transform="matrix(1 -8.428985e-03 8.428985e-03 1 -2.254 -24.2654)" class="st4" cx="-2879.9" cy="255.3" rx="85.2" ry="85.2"/>
<rect x="-2898.4" y="152.7" transform="matrix(2.706405e-10 -1 1 2.706405e-10 -3040.4761 -2708.9788)" class="st1" width="47.3" height="26.1"/>
<rect x="-2998.7" y="210.3" class="st1" width="62.9" height="23.5"/>
<rect x="-2970.1" y="304.3" class="st1" width="74.5" height="23.5"/>
<ellipse transform="matrix(1 -8.428985e-03 8.428985e-03 1 -2.2539 -24.2545)" class="st5" cx="-2878.6" cy="255.3" rx="50.7" ry="50.7"/>
<rect x="-2879.9" y="235.8" class="st1" width="106.5" height="45.4"/>
</svg>
