<?xml version="1.0" encoding="utf-8"?>
<!-- Generator: Adobe Illustrator 21.1.0, SVG Export Plug-In . SVG Version: 6.00 Build 0)  -->
<svg version="1.1" xmlns="http://www.w3.org/2000/svg" xmlns:xlink="http://www.w3.org/1999/xlink" x="0px" y="0px"
	 viewBox="0 0 2184 1632" style="enable-background:new 0 0 2184 1632;" xml:space="preserve">
<style type="text/css">
	.st0{fill:none;stroke:#3DABE1;stroke-width:5;stroke-miterlimit:10;}
	.st1{fill:none;stroke:#000000;stroke-width:3;stroke-miterlimit:10;}
	.st2{fill:#3DABE1;}
	.st3{fill:#FFFFFF;}
	.st4{fill:none;stroke:#3DABE1;stroke-miterlimit:10;}
	.st5{fill:none;stroke:#000000;stroke-miterlimit:10;}
	.st6{fill:none;stroke:#000000;stroke-width:6;stroke-miterlimit:10;}
	.st7{fill:none;stroke:#3DABE1;stroke-width:3;stroke-miterlimit:10;}
	.st8{font-family:'FuturaPT-Book';}
	.st9{font-size:79px;}
	.st10{fill:none;stroke:#000000;stroke-width:2;stroke-miterlimit:10;}
</style>
<g id="Layer_4">
	<g id="Layer_5">
	</g>
</g>
<g id="Layer_1">
	<circle class="st0" cx="1074" cy="2522.9" r="142.7"/>
	<path class="st1" d="M5137.5,326.9c0,0,1.8,17.3,24.2,34.3c22.4,17,40.4,30.8,40.4,30.8"/>
	<path class="st1" d="M5148,542.7c0,0,20.9,14.6,41.2,4.2c20.3-10.3,27-34.6,27-34.6"/>
	<path class="st1" d="M5161.7,477.1c0,0,27.6,71.9,35.8,0c1.9-16.7,0-67.3,0-67.3"/>
	<path class="st1" d="M5095,420.8c0,0,27.6-71.9,35.8,0c1.9,16.7,0,67.3,0,67.3"/>
	<path class="st1" d="M5192.5,271.5c0,0-6.1,13,5,35.2c11.1,22.2,11.1,22.2,11.1,22.2"/>
	<path class="st1" d="M5243.3,230.5c0,0,13.3,239.9,0,318.4c-2.6,15.3-12,34.6-47.7,39.8c-35.6,5.2-34.6-35.9-47.7-46.1
		c-10.6-8.2-31.4,0.5-48.7-22.5c-17.3-23-31.8-38.1-22-129.4c2.3-21.8,5.8-61.8,60.2-63.9c0,0,1.6-45.6,55-56
		C5192.5,270.9,5196.7,227.9,5243.3,230.5z"/>
	<path class="st2" d="M5275.5,230.5c0,0-13.3,239.9,0,318.4c2.6,15.3,12,34.6,47.7,39.8c35.6,5.2,34.6-35.9,47.7-46.1
		c10.6-8.2,31.4,0.5,48.7-22.5c17.3-23,31.8-38.1,22-129.4c-2.3-21.8-5.8-61.8-60.2-63.9c0,0-1.6-45.6-55-56
		C5326.3,270.9,5322.1,227.9,5275.5,230.5z"/>
	<path class="st2" d="M1131.1,757.2h-18.6c-6.6,0-12-5.4-12-12v-45c0-6.6,5.4-12,12-12h18.6c6.6,0,12,5.4,12,12v45
		C1143.1,751.8,1137.7,757.2,1131.1,757.2z"/>
	<rect x="1105.9" y="663.2" class="st2" width="31.8" height="5.5"/>
	<rect x="1113.8" y="668.6" class="st2" width="15.9" height="21.6"/>
	<rect x="1116" y="625.3" class="st2" width="11.4" height="37.8"/>
	<polygon class="st2" points="1127.5,606.6 1116,606.6 1110.3,616.5 1116,626.4 1127.5,626.4 1133.2,616.5 	"/>
	<rect x="1110.3" y="583.8" class="st2" width="22.9" height="32.7"/>
	<circle class="st2" cx="1050.9" cy="736.2" r="22.9"/>
	<circle class="st2" cx="1050.3" cy="612.3" r="30.5"/>
	<rect x="1038.3" y="609.4" class="st2" width="25.2" height="131.3"/>
	<ellipse class="st3" cx="1050.3" cy="605" rx="16.9" ry="24.9"/>
	<circle class="st3" cx="1050.9" cy="736.2" r="17"/>
	<rect x="1131" y="698.1" class="st3" width="3.2" height="50.9"/>
	<rect x="1125.4" y="698.1" class="st3" width="3.2" height="50.9"/>
	<rect x="1119.9" y="583.1" class="st3" width="3.2" height="115"/>
	<rect x="1048.9" y="627.9" class="st3" width="3.2" height="93.7"/>
	<rect x="1119.9" y="698.1" class="st3" width="3.2" height="50.9"/>
	<rect x="1114.4" y="698.1" class="st3" width="3.2" height="50.9"/>
	<rect x="1108.9" y="698.1" class="st3" width="3.2" height="50.9"/>
	<circle class="st2" cx="3093.1" cy="640.8" r="140.2"/>
	<path class="st2" d="M3212.3,684.4h-239.1c-7.4,0-12.1,8-8.3,14.5l119.6,206.6c3.7,6.4,13,6.4,16.7,0l119.6-206.6
		C3224.4,692.5,3219.7,684.4,3212.3,684.4z"/>
	<ellipse class="st4" cx="1050.9" cy="735.9" rx="11.9" ry="11.7"/>
	<circle class="st3" cx="3093.1" cy="640.8" r="33.7"/>
	<text transform="matrix(1 0 0 1 2879.0537 1122.4617)" class="st8 st9">DISPATCH YOUR MECHANIC</text>
	<circle class="st4" cx="3093.1" cy="640.8" r="22.8"/>
	<circle cx="3559.7" cy="641.8" r="140.2"/>
	<path d="M3678.7,685.4h-238.9c-7.4,0-12,8-8.3,14.5l119.5,206.6c3.7,6.4,13,6.4,16.7,0L3687,699.9
		C3690.7,693.5,3686.1,685.4,3678.7,685.4z"/>
	<circle class="st3" cx="3559.7" cy="641.8" r="33.7"/>
	<circle class="st5" cx="3559.7" cy="641.8" r="22.8"/>
	<rect x="3076.7" y="633.9" class="st3" width="499.6" height="16.6"/>
	<path class="st6" d="M1340.8,1156.9H829.2c-19.7,0-35.8-16.1-35.8-35.8V280c0-19.7,16.1-35.8,35.8-35.8h511.7
		c19.7,0,35.8,16.1,35.8,35.8V1121C1376.6,1140.8,1360.5,1156.9,1340.8,1156.9z"/>
	<path class="st7" d="M1326.7,1042.7H843.2c-6.6,0-12-5.4-12-12V315.7c0-6.6,5.4-12,12-12h483.5c6.6,0,12,5.4,12,12v714.9
		C1338.7,1037.3,1333.3,1042.7,1326.7,1042.7z"/>
	<circle class="st7" cx="1084" cy="1103.6" r="25.5"/>
	<text transform="matrix(1 0 0 1 762.6348 1299.5378)" class="st8 st9">OPEN CHECKLIGHT</text>
	<text transform="matrix(1 0 0 1 725.2356 3037.4375)" class="st8" style="font-size:106px;">PEACE OF MIND</text>
	<rect x="1056.3" y="728.8" class="st3" width="8.5" height="12.1"/>
	<g id="Layer_2">
	</g>
	<rect x="1121.3" y="2409" class="st3" width="132.8" height="187"/>
</g>
<g id="Layer_3">
	<circle class="st10" cx="5678.8" cy="1366.9" r="54.4"/>
	
		<rect x="5837.7" y="1058.9" transform="matrix(0.6332 -0.774 0.774 0.6332 1251.6035 4941.8887)" class="st2" width="3.8" height="183.2"/>
	
		<rect x="5501.4" y="807.5" transform="matrix(0.6332 -0.774 0.774 0.6332 1322.8439 4589.3682)" class="st2" width="3.8" height="183.2"/>
	<rect x="5678.8" y="1115.9" class="st2" width="3.8" height="183.2"/>
	<rect x="5685.1" y="697.3" class="st2" width="3.8" height="183.2"/>
	
		<rect x="5616.4" y="1016.7" transform="matrix(0.8969 0.4423 -0.4423 0.8969 1035.0551 -2396.4358)" class="st2" width="79.2" height="8.9"/>
	<circle class="st10" cx="5972.3" cy="1259.1" r="54.4"/>
	<circle class="st10" cx="5368.6" cy="788.9" r="54.4"/>
	<circle class="st10" cx="5687" cy="629.5" r="54.4"/>
	<circle class="st10" cx="5682.6" cy="998.2" r="92.8"/>
	<path class="st2" d="M5008.6,1475.3h63.5c0,0-0.2-43.4,3.1-50.7c3.3-7.3,14.9-29.6,35.8-39.1c20.8-9.5,59.7-26.8,63.7-37.9
		c4-11.1,27.8-83.9,28.2-101.1c0.4-17.2,2.5-62.2,4.9-78.9c2.5-16.8,10.2-39.3,10.2-39.3s1.2-10.6-9-2
		c-10.2,8.6-20.9,13.1-25.8,36.8c-4.9,23.7-13.1,44.6-16.8,64.6c-3.7,20-12.3,38.9-22.9,50.7c-10.6,11.9-33.9,33.1-33.9,33.1
		s-10.3,4.4-0.4-10.5c9.9-14.9,33.5-56.3,35.3-65.1s6.8-33.3-6-24.7c-12.8,8.6-33.9,38.8-40.4,50c-6.5,11.2-20.6,27.1-31.5,37.9
		c-10.9,10.8-24.5,22.3-30.7,27c-6.2,4.7-25.5,21.4-26,41.1C5009.4,1387,5008.6,1475.3,5008.6,1475.3z"/>
	<path class="st2" d="M1100.1,2862.8h63.5c0,0,3.8-43.4,7.1-50.7s13.9-26.6,34.8-36.1c20.8-9.5,60.7-29.8,64.7-40.9
		c4-11.1,22.8-83.9,23.2-101.1c0.4-17.2,5.5-62.2,7.9-78.9c2.5-16.8,7.8-29.1,8.2-39.3c0.1-3.3-2.8-10.6-13-2
		c-10.2,8.6-16.9,13.1-21.8,36.8c-4.9,23.7-13.1,44.6-16.8,64.6c-3.7,20-11.3,41.9-21.9,53.7c-10.6,11.9-34.9,30.1-34.9,30.1
		s-10.3,4.4-0.4-10.5c9.9-14.9,33.5-56.3,35.3-65.1c1.8-8.9,4.8-33.3-8-24.7c-12.8,8.6-31.9,38.8-38.4,50
		c-6.5,11.2-21.6,27.1-32.5,37.9s-23.5,22.3-29.7,26.9c-6.2,4.7-25.5,21.4-26,41.1S1100.1,2862.8,1100.1,2862.8z"/>
	<path class="st2" d="M1050.9,2862.8h-63.5c0,0-3.8-43.4-7.1-50.7s-13.9-26.6-34.8-36.1c-20.8-9.5-60.7-29.8-64.7-40.9
		c-4-11.1-22.8-83.9-23.2-101.1c-0.4-17.2-5.5-62.2-7.9-78.9c-2.5-16.8-7.8-29.1-8.2-39.3c-0.1-3.3,2.8-10.6,13-2
		c10.2,8.6,16.9,13.1,21.8,36.8c4.9,23.7,13.1,44.6,16.8,64.6c3.7,20,11.3,41.9,21.9,53.7s34.9,30.1,34.9,30.1s10.3,4.4,0.4-10.5
		c-9.9-14.9-33.5-56.3-35.3-65.1c-1.8-8.9-4.8-33.3,8-24.7c12.8,8.6,31.9,38.8,38.4,50s21.6,27.1,32.5,37.9
		c10.9,10.8,23.5,22.3,29.7,26.9c6.2,4.7,25.5,21.4,26,41.1S1050.9,2862.8,1050.9,2862.8z"/>
	<path class="st7" d="M5006.8,1078.1h46.9c0,0-0.2-32,2.3-37.5c2.5-5.4,11-21.9,26.4-28.9c15.4-7,44.1-19.8,47.1-28
		c3-8.2,20.6-62,20.9-74.7c0.3-12.7,1.8-46,3.6-58.3s7.6-29,7.6-29s0.9-7.9-6.7-1.5c-7.6,6.3-15.4,9.7-19,27.2
		c-3.6,17.5-9.7,33-12.4,47.8c-2.7,14.8-9.1,28.7-16.9,37.5c-7.9,8.8-25.1,24.5-25.1,24.5s-7.6,3.3-0.3-7.8
		c7.3-11,24.8-41.6,26.1-48.1c1.3-6.5,5-24.6-4.4-18.3c-9.4,6.4-25,28.7-29.8,37c-4.8,8.3-15.2,20-23.3,28
		c-8.1,8-18.1,16.5-22.7,19.9c-4.6,3.5-18.9,15.8-19.2,30.4S5006.8,1078.1,5006.8,1078.1z"/>
	<path class="st7" d="M4981.4,1078.1h-46.9c0,0,0.2-32-2.3-37.5c-2.5-5.4-11-21.9-26.4-28.9c-15.4-7-44.1-19.8-47.1-28
		c-3-8.2-20.6-62-20.9-74.7c-0.3-12.7-1.8-46-3.6-58.3s-7.6-29-7.6-29s-0.9-7.9,6.7-1.5c7.6,6.3,15.4,9.7,19,27.2s9.7,33,12.4,47.8
		c2.7,14.8,9.1,28.7,16.9,37.5c7.9,8.8,25.1,24.5,25.1,24.5s7.6,3.3,0.3-7.8c-7.3-11-24.8-41.6-26.1-48.1c-1.3-6.5-5-24.6,4.4-18.3
		c9.4,6.4,25,28.7,29.8,37c4.8,8.3,15.2,20,23.3,28c8.1,8,18.1,16.5,22.7,19.9c4.6,3.5,18.9,15.8,19.2,30.4
		C4980.7,1012.8,4981.4,1078.1,4981.4,1078.1z"/>
	<rect x="5741.5" y="937.2" class="st3" width="37.8" height="87"/>
	
		<rect x="5654.7" y="960.9" transform="matrix(0.6914 -0.7225 0.7225 0.6914 1079.5216 4457.8315)" class="st2" width="205.5" height="8.9"/>
	<rect x="978.7" y="2545" transform="matrix(0.7966 0.6045 -0.6045 0.7966 1753.7753 -109.0824)" width="120.6" height="13.5"/>
	<rect x="1029.8" y="2468.8" transform="matrix(0.6914 -0.7225 0.7225 0.6914 -1422.5364 1621.1161)" width="312.8" height="13.5"/>
</g>
</svg>
