<?xml version="1.0" encoding="utf-8"?>
<!-- Generator: Adobe Illustrator 21.1.0, SVG Export Plug-In . SVG Version: 6.00 Build 0)  -->
<svg version="1.1" xmlns="http://www.w3.org/2000/svg" xmlns:xlink="http://www.w3.org/1999/xlink" x="0px" y="0px"
	 viewBox="0 0 2184 1632" style="enable-background:new 0 0 2184 1632;" xml:space="preserve">
<style type="text/css">
	.st0{fill:none;stroke:#3DABE1;stroke-width:5;stroke-miterlimit:10;}
	.st1{fill:none;stroke:#000000;stroke-width:3;stroke-miterlimit:10;}
	.st2{fill:#3DABE1;}
	.st3{fill:#FFFFFF;}
	.st4{fill:none;stroke:#3DABE1;stroke-miterlimit:10;}
	.st5{fill:none;stroke:#000000;stroke-miterlimit:10;}
	.st6{fill:none;stroke:#000000;stroke-width:6;stroke-miterlimit:10;}
	.st7{fill:none;stroke:#3DABE1;stroke-width:3;stroke-miterlimit:10;}
	.st8{font-family:'FuturaPT-Book';}
	.st9{font-size:106px;}
	.st10{fill:none;stroke:#000000;stroke-width:2;stroke-miterlimit:10;}
</style>
<g id="Layer_4">
	<g id="Layer_5">
	</g>
</g>
<g id="Layer_1">
	<circle class="st0" cx="1074" cy="870.9" r="142.7"/>
	<text transform="matrix(1 0 0 1 725.2356 1385.4375)" class="st8 st9">PEACE OF MIND</text>
	<g id="Layer_2">
	</g>
	<rect x="1121.3" y="757" class="st3" width="132.8" height="187"/>
</g>
<g id="Layer_3">
	<path class="st2" d="M1100.1,1210.8h63.5c0,0,3.8-43.4,7.1-50.7c3.3-7.3,13.9-26.6,34.8-36.1c20.8-9.5,60.7-29.8,64.7-40.9
		s22.8-83.9,23.2-101.1c0.4-17.2,5.5-62.2,7.9-78.9c2.5-16.8,7.8-29.1,8.2-39.3c0.1-3.3-2.8-10.6-13-2
		c-10.2,8.6-16.9,13.1-21.8,36.8c-4.9,23.7-13.1,44.6-16.8,64.6c-3.7,20-11.3,41.9-21.9,53.7c-10.6,11.9-34.9,30.1-34.9,30.1
		s-10.3,4.4-0.4-10.5c9.9-14.9,33.5-56.3,35.3-65.1c1.8-8.9,4.8-33.3-8-24.7c-12.8,8.6-31.9,38.8-38.4,50
		c-6.5,11.2-21.6,27.1-32.5,37.9c-10.9,10.8-23.5,22.3-29.7,27c-6.2,4.7-25.5,21.4-26,41.1
		C1100.9,1122.5,1100.1,1210.8,1100.1,1210.8z"/>
	<path class="st2" d="M1050.9,1210.8h-63.5c0,0-3.8-43.4-7.1-50.7c-3.3-7.3-13.9-26.6-34.8-36.1c-20.8-9.5-60.7-29.8-64.7-40.9
		s-22.8-83.9-23.2-101.1c-0.4-17.2-5.5-62.2-7.9-78.9c-2.5-16.8-7.8-29.1-8.2-39.3c-0.1-3.3,2.8-10.6,13-2
		c10.2,8.6,16.9,13.1,21.8,36.8c4.9,23.7,13.1,44.6,16.8,64.6c3.7,20,11.3,41.9,21.9,53.7c10.6,11.9,34.9,30.1,34.9,30.1
		s10.3,4.4,0.4-10.5c-9.9-14.9-33.5-56.3-35.3-65.1c-1.8-8.9-4.8-33.3,8-24.7c12.8,8.6,31.9,38.8,38.4,50s21.6,27.1,32.5,37.9
		c10.9,10.8,23.5,22.3,29.7,27s25.5,21.4,26,41.1C1050,1122.5,1050.9,1210.8,1050.9,1210.8z"/>
	<rect x="978.7" y="893" transform="matrix(0.7966 0.6045 -0.6045 0.7966 755.1846 -445.0578)" width="120.6" height="13.5"/>
	<rect x="1029.8" y="816.8" transform="matrix(0.6914 -0.7225 0.7225 0.6914 -228.9344 1111.2275)" width="312.8" height="13.5"/>
</g>
</svg>
