<?xml version="1.0" encoding="utf-8"?>
<!-- Generator: Adobe Illustrator 21.1.0, SVG Export Plug-In . SVG Version: 6.00 Build 0)  -->
<svg version="1.1" xmlns="http://www.w3.org/2000/svg" xmlns:xlink="http://www.w3.org/1999/xlink" x="0px" y="0px"
	 viewBox="0 0 2184 1632" style="enable-background:new 0 0 2184 1632;" xml:space="preserve">
<style type="text/css">
	.st0{fill:none;stroke:#3DABE1;stroke-width:5;stroke-miterlimit:10;}
	.st1{fill:none;stroke:#000000;stroke-width:3;stroke-miterlimit:10;}
	.st2{fill:#3DABE1;}
	.st3{fill:#FFFFFF;}
	.st4{fill:none;stroke:#3DABE1;stroke-miterlimit:10;}
	.st5{font-family:'FuturaPT-Book';}
	.st6{font-size:79px;}
	.st7{fill:none;stroke:#000000;stroke-miterlimit:10;}
	.st8{fill:none;stroke:#000000;stroke-width:6;stroke-miterlimit:10;}
	.st9{fill:none;stroke:#3DABE1;stroke-width:3;stroke-miterlimit:10;}
	.st10{fill:none;stroke:#000000;stroke-width:2;stroke-miterlimit:10;}
</style>
<g id="Layer_4">
	<g id="Layer_5">
	</g>
</g>
<g id="Layer_1">
	<circle class="st2" cx="889.1" cy="640.8" r="140.2"/>
	<path class="st2" d="M1008.3,684.4H769.2c-7.4,0-12.1,8-8.3,14.5l119.6,206.6c3.7,6.4,13,6.4,16.7,0l119.6-206.6
		C1020.4,692.5,1015.7,684.4,1008.3,684.4z"/>
	<circle class="st3" cx="889.1" cy="640.8" r="33.7"/>
	<text transform="matrix(1 0 0 1 675.0537 1122.4617)" class="st5 st6">DISPATCH YOUR MECHANIC</text>
	<circle class="st4" cx="889.1" cy="640.8" r="22.8"/>
	<circle cx="1355.7" cy="641.8" r="140.2"/>
	<path d="M1474.7,685.4h-238.9c-7.4,0-12,8-8.3,14.5l119.5,206.6c3.7,6.4,13,6.4,16.7,0L1483,699.9
		C1486.7,693.5,1482.1,685.4,1474.7,685.4z"/>
	<circle class="st3" cx="1355.7" cy="641.8" r="33.7"/>
	<circle class="st7" cx="1355.7" cy="641.8" r="22.8"/>
	<rect x="872.7" y="633.9" class="st3" width="499.6" height="16.6"/>
	<g id="Layer_2">
	</g>
</g>
<g id="Layer_3">
</g>
</svg>
